<?xml version="1.0" standalone="no"?>
<!DOCTYPE svg PUBLIC "-//W3C//DTD SVG 20010904//EN"
 "http://www.w3.org/TR/2001/REC-SVG-20010904/DTD/svg10.dtd">
<svg version="1.0" xmlns="http://www.w3.org/2000/svg"
 width="584.000000pt" height="584.000000pt" viewBox="0 0 584.000000 584.000000"
 preserveAspectRatio="xMidYMid meet">
<metadata>
Created by potrace 1.11, written by Peter Selinger 2001-2013
</metadata>
<g transform="translate(0.000000,584.000000) scale(0.100000,-0.100000)"
fill="#000000" stroke="none">
<path d="M2807 5734 c-1 -1 -47 -4 -102 -8 -55 -4 -129 -11 -165 -17 -36 -5
-78 -12 -95 -15 -16 -2 -52 -9 -80 -14 -27 -6 -60 -12 -73 -15 -13 -2 -32 -7
-42 -10 -10 -3 -27 -8 -37 -10 -49 -10 -231 -69 -300 -96 -508 -202 -916 -509
-1240 -934 -167 -220 -299 -464 -407 -751 -15 -39 -29 -79 -31 -90 -3 -10 -14
-50 -25 -89 -11 -38 -22 -79 -24 -90 -2 -11 -11 -51 -20 -89 -61 -260 -79
-680 -41 -946 40 -272 88 -458 177 -685 94 -237 262 -530 409 -710 412 -504
919 -831 1529 -985 63 -16 131 -31 150 -35 19 -3 46 -7 60 -10 14 -3 48 -7 75
-11 28 -3 58 -8 69 -10 110 -21 541 -21 652 0 10 2 46 7 79 11 32 3 62 8 65
10 3 1 27 6 54 9 143 20 434 111 633 199 565 249 1047 703 1347 1268 90 171
216 506 241 642 3 12 11 54 20 92 47 220 71 591 51 775 -3 25 -8 74 -12 110
-3 36 -7 72 -9 80 -1 8 -6 35 -10 60 -18 117 -17 114 -60 276 -32 124 -82 273
-122 364 -43 98 -120 252 -154 309 -22 34 -39 65 -39 66 0 11 -181 270 -199
285 -3 3 -24 28 -45 55 -73 93 -330 339 -441 422 -61 46 -114 86 -120 91 -33
26 -235 146 -320 189 -121 62 -356 159 -430 177 -5 2 -17 6 -25 9 -19 8 -244
63 -290 71 -19 3 -46 8 -60 11 -14 3 -45 8 -70 11 -25 2 -56 7 -69 9 -61 11
-444 27 -454 19z m348 -559 c104 -13 122 -16 201 -30 325 -60 689 -223 944
-424 455 -358 745 -826 854 -1381 43 -221 53 -514 22 -712 -2 -18 -8 -53 -11
-78 -4 -25 -15 -83 -25 -130 -179 -802 -791 -1455 -1580 -1685 -112 -32 -193
-50 -275 -61 -22 -3 -46 -7 -53 -9 -69 -23 -545 -23 -614 0 -7 2 -31 6 -53 9
-22 3 -74 12 -115 21 -41 9 -85 18 -98 21 -50 10 -193 58 -287 97 -571 233
-1033 701 -1258 1277 -108 275 -156 546 -152 855 3 227 19 350 75 560 120 453
398 879 770 1180 191 154 448 297 675 375 130 44 275 82 371 95 21 3 48 7 59
10 11 2 56 7 100 11 44 4 81 8 83 9 6 5 317 -3 367 -10z"/>
<path d="M1969 4096 c-2 -2 -21 -6 -42 -9 -54 -7 -159 -63 -228 -122 -161
-137 -274 -352 -313 -594 -17 -102 -12 -135 22 -161 32 -25 92 -26 118 -2 10
10 53 78 94 151 115 203 210 287 350 309 158 24 315 -79 420 -276 103 -191
112 -202 172 -202 39 0 75 28 84 65 11 46 -12 182 -51 300 -101 301 -334 526
-561 541 -33 2 -63 2 -65 0z"/>
<path d="M3730 4084 c-196 -53 -394 -274 -485 -539 -23 -69 -53 -238 -49 -277
5 -45 45 -78 93 -78 48 0 63 17 137 150 103 189 177 267 289 309 180 68 366
-28 488 -251 80 -146 114 -197 132 -202 46 -13 77 -6 107 24 33 33 34 47 9
190 -52 303 -259 582 -492 666 -63 22 -164 26 -229 8z"/>
<path d="M1597 2549 c-46 -7 -83 -32 -108 -72 -17 -27 -19 -43 -15 -102 7 -95
13 -124 52 -244 80 -245 226 -457 433 -629 180 -151 432 -263 666 -297 22 -4
51 -8 65 -11 34 -6 429 -5 460 1 14 3 48 7 75 11 169 18 391 107 568 226 314
211 543 582 583 943 7 67 -25 131 -79 158 -36 19 -78 19 -1351 21 -722 0
-1329 -2 -1349 -5z"/>
</g>
</svg>
